<?xml version="1.0" encoding="utf-8"?>
<!-- Generator: Adobe Illustrator 23.0.0, SVG Export Plug-In . SVG Version: 6.00 Build 0)  -->
<svg version="1.1" id="Layer_1" xmlns="http://www.w3.org/2000/svg" xmlns:xlink="http://www.w3.org/1999/xlink" x="0px" y="0px"
	 viewBox="0 0 32 33" style="enable-background:new 0 0 32 33;" xml:space="preserve">
<style type="text/css">
	.st0{fill-rule:evenodd;clip-rule:evenodd;fill:#00255C;}
	.st1{clip-path:url(#SVGID_4_);}
	.st2{fill:#00255C;}
	.st3{clip-path:url(#SVGID_6_);fill:#00255C;}
	.st4{clip-path:url(#SVGID_10_);}
	.st5{clip-path:url(#SVGID_12_);fill:#00255C;}
</style>
<g>
	<g>
		<polygon id="SVGID_1_" class="st0" points="0,7.5 16,17.5 32,7.5 32,1.1 16,11.1 0,1.1 		"/>
	</g>
	<g>
		<g>
			<g>
				<g>
					<defs>
						<polygon id="SVGID_2_" points="0,7.5 16,17.5 32,7.5 32,1.1 16,11.1 0,1.1 						"/>
					</defs>
					<clipPath id="SVGID_4_">
						<use xlink:href="#SVGID_2_"  style="overflow:visible;"/>
					</clipPath>
					<g class="st1">
						<g>
							<rect id="SVGID_3_" x="-4419.4" y="-364" class="st2" width="10430.4" height="1419.1"/>
						</g>
						<g>
							<g>
								<g>
									<g>
										<defs>
											<rect id="SVGID_5_" x="-4419.4" y="-364" width="10430.4" height="1419.1"/>
										</defs>
										<clipPath id="SVGID_6_">
											<use xlink:href="#SVGID_5_"  style="overflow:visible;"/>
										</clipPath>
										<rect x="-4.9" y="-3.8" class="st3" width="41.9" height="26.3"/>
									</g>
								</g>
							</g>
						</g>
					</g>
				</g>
			</g>
		</g>
	</g>
</g>
<g>
	<g>
		<g>
			<polygon id="SVGID_7_" class="st2" points="0,22.2 16,32.1 32,22.2 32,15.8 16,25.7 0,15.8 			"/>
		</g>
		<g>
			<g>
				<g>
					<defs>
						<polygon id="SVGID_8_" points="0,22.2 16,32.1 32,22.2 32,15.8 16,25.7 0,15.8 						"/>
					</defs>
					<clipPath id="SVGID_10_">
						<use xlink:href="#SVGID_8_"  style="overflow:visible;"/>
					</clipPath>
					<g class="st4">
						<g>
							<g>
								<rect id="SVGID_9_" x="-4419.4" y="-364" class="st2" width="10430.4" height="1419.1"/>
							</g>
							<g>
								<g>
									<g>
										<defs>
											<rect id="SVGID_11_" x="-4419.4" y="-364" width="10430.4" height="1419.1"/>
										</defs>
										<clipPath id="SVGID_12_">
											<use xlink:href="#SVGID_11_"  style="overflow:visible;"/>
										</clipPath>
										<rect x="-4.9" y="10.8" class="st5" width="41.9" height="26.3"/>
									</g>
								</g>
							</g>
						</g>
					</g>
				</g>
			</g>
		</g>
	</g>
</g>
</svg>
