<?xml version="1.0" encoding="utf-8"?>
<!-- Generator: Adobe Illustrator 23.0.0, SVG Export Plug-In . SVG Version: 6.00 Build 0)  -->
<svg version="1.1" id="Layer_1" xmlns="http://www.w3.org/2000/svg" xmlns:xlink="http://www.w3.org/1999/xlink" x="0px" y="0px"
	 viewBox="0 0 83.5 61.9" style="enable-background:new 0 0 83.5 61.9;" xml:space="preserve">
<style type="text/css">
	.st0{fill-rule:evenodd;clip-rule:evenodd;fill:#00255C;}
	.st1{clip-path:url(#SVGID_4_);}
	.st2{fill:#00255C;}
	.st3{clip-path:url(#SVGID_6_);fill:#00255C;}
	.st4{clip-path:url(#SVGID_10_);}
	.st5{clip-path:url(#SVGID_12_);fill:#00255C;}
</style>
<g>
	<g>
		<polygon id="SVGID_1_" class="st0" points="25.2,47.3 35.5,30.8 25.2,14.3 18.6,14.3 28.9,30.8 18.6,47.3 		"/>
	</g>
	<g>
		<g>
			<defs>
				<polygon id="SVGID_2_" points="25.2,47.3 35.5,30.8 25.2,14.3 18.6,14.3 28.9,30.8 18.6,47.3 				"/>
			</defs>
			<clipPath id="SVGID_4_">
				<use xlink:href="#SVGID_2_"  style="overflow:visible;"/>
			</clipPath>
			<g class="st1">
				<g>
					<rect id="SVGID_3_" x="-357.9" y="-6151.6" class="st2" width="1463.4" height="10756.4"/>
				</g>
				<g>
					<g>
						<defs>
							<rect id="SVGID_5_" x="-357.9" y="-6151.6" width="1463.4" height="10756.4"/>
						</defs>
						<clipPath id="SVGID_6_">
							<use xlink:href="#SVGID_5_"  style="overflow:visible;"/>
						</clipPath>
						<rect x="13.5" y="9.2" class="st3" width="27.1" height="43.2"/>
					</g>
				</g>
			</g>
		</g>
	</g>
</g>
<g>
	<g>
		<g>
			<polygon id="SVGID_7_" class="st2" points="40.3,47.3 50.6,30.8 40.3,14.3 33.7,14.3 44,30.8 33.7,47.3 			"/>
		</g>
		<g>
			<defs>
				<polygon id="SVGID_8_" points="40.3,47.3 50.6,30.8 40.3,14.3 33.7,14.3 44,30.8 33.7,47.3 				"/>
			</defs>
			<clipPath id="SVGID_10_">
				<use xlink:href="#SVGID_8_"  style="overflow:visible;"/>
			</clipPath>
			<g class="st4">
				<g>
					<g>
						<rect id="SVGID_9_" x="-357.9" y="-6151.6" class="st2" width="1463.4" height="10756.4"/>
					</g>
					<g>
						<defs>
							<rect id="SVGID_11_" x="-357.9" y="-6151.6" width="1463.4" height="10756.4"/>
						</defs>
						<clipPath id="SVGID_12_">
							<use xlink:href="#SVGID_11_"  style="overflow:visible;"/>
						</clipPath>
						<rect x="28.6" y="9.2" class="st5" width="27.1" height="43.2"/>
					</g>
				</g>
			</g>
		</g>
	</g>
</g>
</svg>
