<?xml version="1.0" encoding="utf-8"?>
<!-- Generator: Adobe Illustrator 23.0.0, SVG Export Plug-In . SVG Version: 6.00 Build 0)  -->
<svg version="1.1" id="Layer_1" xmlns="http://www.w3.org/2000/svg" xmlns:xlink="http://www.w3.org/1999/xlink" x="0px" y="0px"
	 viewBox="0 0 346 122" style="enable-background:new 0 0 346 122;" xml:space="preserve">
<style type="text/css">
	.st0{clip-path:url(#SVGID_2_);}
	.st1{clip-path:url(#SVGID_4_);fill:#FEFEFE;}
	.st2{clip-path:url(#SVGID_6_);}
	.st3{clip-path:url(#SVGID_8_);fill:#FEFEFE;}
	.st4{clip-path:url(#SVGID_10_);}
	.st5{clip-path:url(#SVGID_12_);fill:#FEFEFE;}
	.st6{clip-path:url(#SVGID_14_);}
	.st7{clip-path:url(#SVGID_16_);fill:#FEFEFE;}
	.st8{clip-path:url(#SVGID_18_);}
	.st9{clip-path:url(#SVGID_20_);fill:#FEFEFE;}
	.st10{clip-path:url(#SVGID_22_);}
	.st11{clip-path:url(#SVGID_24_);fill:#FEFEFE;}
	.st12{clip-path:url(#SVGID_26_);}
	.st13{clip-path:url(#SVGID_28_);fill:#FEFEFE;}
	.st14{clip-path:url(#SVGID_30_);}
	.st15{clip-path:url(#SVGID_32_);fill:#FEFEFE;}
	.st16{clip-path:url(#SVGID_34_);}
	.st17{clip-path:url(#SVGID_36_);fill:#FEFEFE;}
	.st18{clip-path:url(#SVGID_38_);}
	.st19{clip-path:url(#SVGID_40_);fill:#FEFEFE;}
	.st20{clip-path:url(#SVGID_42_);}
	.st21{clip-path:url(#SVGID_44_);fill:#FEFEFE;}
	.st22{clip-path:url(#SVGID_46_);}
	.st23{clip-path:url(#SVGID_48_);fill:#FEFEFE;}
	.st24{clip-path:url(#SVGID_50_);}
	.st25{clip-path:url(#SVGID_52_);fill:#FEFEFE;}
	.st26{clip-path:url(#SVGID_54_);}
	.st27{clip-path:url(#SVGID_56_);fill:#FEFEFE;}
	.st28{clip-path:url(#SVGID_58_);}
	.st29{clip-path:url(#SVGID_60_);fill:#FEFEFE;}
	.st30{clip-path:url(#SVGID_62_);}
	.st31{clip-path:url(#SVGID_64_);fill:#FEFEFE;}
	.st32{clip-path:url(#SVGID_66_);}
	.st33{clip-path:url(#SVGID_68_);fill:#FEFEFE;}
	.st34{clip-path:url(#SVGID_70_);}
	.st35{clip-path:url(#SVGID_72_);fill:#FEFEFE;}
	.st36{clip-path:url(#SVGID_74_);}
	.st37{clip-path:url(#SVGID_76_);fill:#FEFEFE;}
	.st38{clip-path:url(#SVGID_78_);}
	.st39{clip-path:url(#SVGID_80_);enable-background:new    ;}
	.st40{clip-path:url(#SVGID_82_);}
	.st41{clip-path:url(#SVGID_84_);}
	.st42{clip-path:url(#SVGID_86_);fill:#FEFEFE;}
	.st43{clip-path:url(#SVGID_88_);}
	.st44{clip-path:url(#SVGID_90_);fill:#FEFEFE;}
	.st45{clip-path:url(#SVGID_92_);}
	.st46{clip-path:url(#SVGID_94_);fill:#FEFEFE;}
	.st47{clip-path:url(#SVGID_96_);}
	.st48{clip-path:url(#SVGID_98_);fill:#FEFEFE;}
	.st49{clip-path:url(#SVGID_100_);}
	.st50{clip-path:url(#SVGID_102_);fill:#FEFEFE;}
	.st51{clip-path:url(#SVGID_104_);}
	.st52{clip-path:url(#SVGID_106_);fill:#FEFEFE;}
	.st53{clip-path:url(#SVGID_108_);}
	.st54{clip-path:url(#SVGID_110_);fill:#FEFEFE;}
	.st55{clip-path:url(#SVGID_112_);}
	.st56{clip-path:url(#SVGID_114_);fill:#FEFEFE;}
	.st57{clip-path:url(#SVGID_116_);}
	.st58{clip-path:url(#SVGID_118_);fill:#F4A71D;}
</style>
<g>
	<g>
		<defs>
			<path id="SVGID_1_" d="M105.5,37.4h-2.4l-0.9-2.5c-1.4,2.1-2.8,2.9-5.2,2.9c-2.4,0-4.4-1-5.5-2.7c-1.1-1.8-1.5-3.9-1.5-7.7V16.6
				c0-4.9,0.3-6.4,2-8.3c1.3-1.6,3.5-2.5,5.8-2.5c3.7,0,6.5,2,7.4,5.3c0.3,1.1,0.3,1.6,0.3,5.4h-5c0-1.9-0.1-3.1-0.1-3.8
				c-0.2-1.5-1.2-2.5-2.7-2.5c-1.2,0-2.2,0.7-2.5,2.1c-0.1,0.6-0.2,2.2-0.2,4.7v9.8c0,2.3,0.1,4.3,0.3,4.9c0.3,1.1,1.3,1.8,2.5,1.8
				c1.2,0,2.2-0.7,2.5-2c0.1-0.7,0.2-2.1,0.2-4.7v-1.3h-3v-3.9h8V37.4z"/>
		</defs>
		<clipPath id="SVGID_2_">
			<use xlink:href="#SVGID_1_"  style="overflow:visible;"/>
		</clipPath>
		<g class="st0">
			<defs>
				<rect id="SVGID_3_" x="-125" y="-58" width="1440" height="314"/>
			</defs>
			<clipPath id="SVGID_4_">
				<use xlink:href="#SVGID_3_"  style="overflow:visible;"/>
			</clipPath>
			<rect x="84.9" y="0.8" class="st1" width="25.6" height="42"/>
		</g>
	</g>
	<g>
		<defs>
			<path id="SVGID_5_" d="M125.3,27.3c0,4.6-0.4,6.3-2,8.1c-1.3,1.5-3.5,2.5-5.8,2.5c-2.3,0-4.5-0.9-5.8-2.5c-1.6-1.8-2-3.5-2-8.1
				V16.4c0-4.6,0.4-6.3,2-8.1c1.3-1.5,3.5-2.5,5.8-2.5c2.3,0,4.5,0.9,5.8,2.5c1.6,1.8,2,3.5,2,8.1V27.3z M114.7,26.8
				c0,2.9,0.1,4.3,0.3,5c0.4,1.1,1.3,1.8,2.5,1.8c1.2,0,2.2-0.7,2.5-2.1c0.1-0.6,0.2-2.1,0.2-4.7v-9.8c0-3-0.1-4.3-0.3-5
				c-0.4-1.1-1.3-1.8-2.4-1.8c-1.3,0-2.2,0.7-2.6,2.1c-0.1,0.6-0.2,2.2-0.2,4.7V26.8z"/>
		</defs>
		<clipPath id="SVGID_6_">
			<use xlink:href="#SVGID_5_"  style="overflow:visible;"/>
		</clipPath>
		<g class="st2">
			<defs>
				<rect id="SVGID_7_" x="-125" y="-58" width="1440" height="314"/>
			</defs>
			<clipPath id="SVGID_8_">
				<use xlink:href="#SVGID_7_"  style="overflow:visible;"/>
			</clipPath>
			<rect x="104.8" y="0.8" class="st3" width="25.6" height="42"/>
		</g>
	</g>
	<g>
		<defs>
			<polygon id="SVGID_9_" points="140.5,6.3 137.1,26.2 133.3,6.3 128.2,6.3 134.6,37.4 139.7,37.4 145.4,6.3 			"/>
		</defs>
		<clipPath id="SVGID_10_">
			<use xlink:href="#SVGID_9_"  style="overflow:visible;"/>
		</clipPath>
		<g class="st4">
			<defs>
				<rect id="SVGID_11_" x="-125" y="-58" width="1440" height="314"/>
			</defs>
			<clipPath id="SVGID_12_">
				<use xlink:href="#SVGID_11_"  style="overflow:visible;"/>
			</clipPath>
			<rect x="123.2" y="1.3" class="st5" width="27.2" height="41.1"/>
		</g>
	</g>
	<g>
		<defs>
			<polygon id="SVGID_13_" points="149,6.3 149,37.4 162.5,37.4 162.5,33.1 154,33.1 154,23.5 160.1,23.5 160.1,19.1 154,19.1 
				154,10.6 162.5,10.6 162.5,6.3 			"/>
		</defs>
		<clipPath id="SVGID_14_">
			<use xlink:href="#SVGID_13_"  style="overflow:visible;"/>
		</clipPath>
		<g class="st6">
			<defs>
				<rect id="SVGID_15_" x="-125" y="-58" width="1440" height="314"/>
			</defs>
			<clipPath id="SVGID_16_">
				<use xlink:href="#SVGID_15_"  style="overflow:visible;"/>
			</clipPath>
			<rect x="144" y="1.3" class="st7" width="23.5" height="41.1"/>
		</g>
	</g>
	<g>
		<defs>
			<path id="SVGID_17_" d="M171.3,37.4h-5V6.3h7c5.8,0,8.3,2.8,8.3,9c0,4-0.9,6.2-3.3,7.8l3.8,14.3h-5.3l-3.1-13h-2.4V37.4z
				 M172.8,20.1c1.7,0,2.3-0.2,2.9-1c0.5-0.7,0.8-2.1,0.8-3.7c0-1.7-0.3-3.2-1-3.9c-0.5-0.7-1.1-0.8-2.7-0.8h-1.6v9.4H172.8z"/>
		</defs>
		<clipPath id="SVGID_18_">
			<use xlink:href="#SVGID_17_"  style="overflow:visible;"/>
		</clipPath>
		<g class="st8">
			<defs>
				<rect id="SVGID_19_" x="-125" y="-58" width="1440" height="314"/>
			</defs>
			<clipPath id="SVGID_20_">
				<use xlink:href="#SVGID_19_"  style="overflow:visible;"/>
			</clipPath>
			<rect x="161.3" y="1.3" class="st9" width="25.8" height="41.1"/>
		</g>
	</g>
	<g>
		<defs>
			<polygon id="SVGID_21_" points="197.7,6.3 197.7,24.8 190.9,6.3 185.9,6.3 185.9,37.4 190.5,37.4 190.5,18.2 197.7,37.4 
				202.3,37.4 202.3,6.3 			"/>
		</defs>
		<clipPath id="SVGID_22_">
			<use xlink:href="#SVGID_21_"  style="overflow:visible;"/>
		</clipPath>
		<g class="st10">
			<defs>
				<rect id="SVGID_23_" x="-125" y="-58" width="1440" height="314"/>
			</defs>
			<clipPath id="SVGID_24_">
				<use xlink:href="#SVGID_23_"  style="overflow:visible;"/>
			</clipPath>
			<rect x="180.9" y="1.3" class="st11" width="26.5" height="41.1"/>
		</g>
	</g>
	<g>
		<defs>
			<path id="SVGID_25_" d="M222.2,27.3c0,4.6-0.4,6.3-2,8.1c-1.3,1.5-3.5,2.5-5.8,2.5c-2.3,0-4.5-0.9-5.8-2.5c-1.6-1.8-2-3.5-2-8.1
				V16.4c0-4.6,0.4-6.3,2-8.1c1.3-1.5,3.5-2.5,5.8-2.5c2.3,0,4.5,0.9,5.8,2.5c1.6,1.8,2,3.5,2,8.1V27.3z M211.6,26.8
				c0,2.9,0.1,4.3,0.3,5c0.4,1.1,1.3,1.8,2.5,1.8c1.2,0,2.2-0.7,2.5-2.1c0.1-0.6,0.2-2.1,0.2-4.7v-9.8c0-3-0.1-4.3-0.3-5
				c-0.4-1.1-1.3-1.8-2.4-1.8c-1.3,0-2.2,0.7-2.6,2.1c-0.1,0.6-0.2,2.2-0.2,4.7V26.8z"/>
		</defs>
		<clipPath id="SVGID_26_">
			<use xlink:href="#SVGID_25_"  style="overflow:visible;"/>
		</clipPath>
		<g class="st12">
			<defs>
				<rect id="SVGID_27_" x="-125" y="-58" width="1440" height="314"/>
			</defs>
			<clipPath id="SVGID_28_">
				<use xlink:href="#SVGID_27_"  style="overflow:visible;"/>
			</clipPath>
			<rect x="201.6" y="0.8" class="st13" width="25.6" height="42"/>
		</g>
	</g>
	<g>
		<defs>
			<path id="SVGID_29_" d="M231.5,37.4h-5V6.3h7c5.8,0,8.3,2.8,8.3,9c0,4-0.9,6.2-3.3,7.8l3.8,14.3H237l-3.1-13h-2.4V37.4z
				 M233.1,20.1c1.7,0,2.3-0.2,2.9-1c0.5-0.7,0.8-2.1,0.8-3.7c0-1.7-0.3-3.2-1-3.9c-0.5-0.7-1.1-0.8-2.7-0.8h-1.6v9.4H233.1z"/>
		</defs>
		<clipPath id="SVGID_30_">
			<use xlink:href="#SVGID_29_"  style="overflow:visible;"/>
		</clipPath>
		<g class="st14">
			<defs>
				<rect id="SVGID_31_" x="-125" y="-58" width="1440" height="314"/>
			</defs>
			<clipPath id="SVGID_32_">
				<use xlink:href="#SVGID_31_"  style="overflow:visible;"/>
			</clipPath>
			<rect x="221.5" y="1.3" class="st15" width="25.8" height="41.1"/>
		</g>
	</g>
	<g>
		<defs>
			<polygon id="SVGID_33_" points="106.7,74.1 106.7,52.5 102,74.1 99.7,74.1 94.7,52.5 94.7,74.1 90.1,74.1 90.1,42.9 96.7,42.9 
				100.9,61.9 104.7,42.9 111.4,42.9 111.4,74.1 			"/>
		</defs>
		<clipPath id="SVGID_34_">
			<use xlink:href="#SVGID_33_"  style="overflow:visible;"/>
		</clipPath>
		<g class="st16">
			<defs>
				<rect id="SVGID_35_" x="-125" y="-58" width="1440" height="314"/>
			</defs>
			<clipPath id="SVGID_36_">
				<use xlink:href="#SVGID_35_"  style="overflow:visible;"/>
			</clipPath>
			<rect x="85.1" y="37.9" class="st17" width="31.3" height="41.1"/>
		</g>
	</g>
	<g>
		<defs>
			<path id="SVGID_37_" d="M121.3,67.2l-1.1,6.9h-4.9l5.4-31.1h6.5l5.8,31.1h-5.1l-1.1-6.9H121.3z M123.8,50.4L122,62.9h3.9
				L123.8,50.4z"/>
		</defs>
		<clipPath id="SVGID_38_">
			<use xlink:href="#SVGID_37_"  style="overflow:visible;"/>
		</clipPath>
		<g class="st18">
			<defs>
				<rect id="SVGID_39_" x="-125" y="-58" width="1440" height="314"/>
			</defs>
			<clipPath id="SVGID_40_">
				<use xlink:href="#SVGID_39_"  style="overflow:visible;"/>
			</clipPath>
			<rect x="110.2" y="37.9" class="st19" width="27.6" height="41.1"/>
		</g>
	</g>
	<g>
		<defs>
			<path id="SVGID_41_" d="M141.2,74.1h-5V42.9h7c5.8,0,8.3,2.8,8.3,9c0,4-0.9,6.2-3.3,7.8l3.8,14.3h-5.3l-3.1-13h-2.4V74.1z
				 M142.8,56.7c1.7,0,2.3-0.2,2.9-1c0.5-0.7,0.8-2.1,0.8-3.7c0-1.7-0.3-3.2-1-3.9c-0.5-0.7-1.1-0.8-2.7-0.8h-1.6v9.4H142.8z"/>
		</defs>
		<clipPath id="SVGID_42_">
			<use xlink:href="#SVGID_41_"  style="overflow:visible;"/>
		</clipPath>
		<g class="st20">
			<defs>
				<rect id="SVGID_43_" x="-125" y="-58" width="1440" height="314"/>
			</defs>
			<clipPath id="SVGID_44_">
				<use xlink:href="#SVGID_43_"  style="overflow:visible;"/>
			</clipPath>
			<rect x="131.2" y="37.9" class="st21" width="25.8" height="41.1"/>
		</g>
	</g>
	<g>
		<defs>
			<rect id="SVGID_45_" x="155.8" y="42.9" width="5" height="31.1"/>
		</defs>
		<clipPath id="SVGID_46_">
			<use xlink:href="#SVGID_45_"  style="overflow:visible;"/>
		</clipPath>
		<g class="st22">
			<defs>
				<rect id="SVGID_47_" x="-125" y="-58" width="1440" height="314"/>
			</defs>
			<clipPath id="SVGID_48_">
				<use xlink:href="#SVGID_47_"  style="overflow:visible;"/>
			</clipPath>
			<rect x="150.8" y="37.9" class="st23" width="15" height="41.1"/>
		</g>
	</g>
	<g>
		<defs>
			<path id="SVGID_49_" d="M180.6,63.9c0,4.6-0.4,6.3-2,8.1c-1.3,1.5-3.5,2.5-5.8,2.5c-2.3,0-4.5-0.9-5.8-2.5c-1.6-1.8-2-3.5-2-8.1
				V53.1c0-4.6,0.4-6.3,2-8.1c1.3-1.5,3.5-2.5,5.8-2.5c2.3,0,4.5,0.9,5.8,2.5c1.6,1.8,2,3.5,2,8.1V63.9z M170,63.4
				c0,2.9,0.1,4.3,0.3,5c0.4,1.1,1.3,1.8,2.5,1.8c1.2,0,2.2-0.7,2.5-2.1c0.1-0.6,0.2-2.1,0.2-4.7v-9.8c0-3-0.1-4.3-0.3-5
				c-0.4-1.1-1.3-1.8-2.4-1.8c-1.3,0-2.2,0.7-2.6,2.1c-0.1,0.6-0.2,2.2-0.2,4.7V63.4z"/>
		</defs>
		<clipPath id="SVGID_50_">
			<use xlink:href="#SVGID_49_"  style="overflow:visible;"/>
		</clipPath>
		<g class="st24">
			<defs>
				<rect id="SVGID_51_" x="-125" y="-58" width="1440" height="314"/>
			</defs>
			<clipPath id="SVGID_52_">
				<use xlink:href="#SVGID_51_"  style="overflow:visible;"/>
			</clipPath>
			<rect x="160" y="37.5" class="st25" width="25.6" height="42"/>
		</g>
	</g>
	<g>
		<defs>
			<polygon id="SVGID_53_" points="210.4,74.1 210.4,52.5 205.6,74.1 203.4,74.1 198.3,52.5 198.3,74.1 193.7,74.1 193.7,42.9 
				200.4,42.9 204.5,61.9 208.3,42.9 215,42.9 215,74.1 			"/>
		</defs>
		<clipPath id="SVGID_54_">
			<use xlink:href="#SVGID_53_"  style="overflow:visible;"/>
		</clipPath>
		<g class="st26">
			<defs>
				<rect id="SVGID_55_" x="-125" y="-58" width="1440" height="314"/>
			</defs>
			<clipPath id="SVGID_56_">
				<use xlink:href="#SVGID_55_"  style="overflow:visible;"/>
			</clipPath>
			<rect x="188.7" y="37.9" class="st27" width="31.3" height="41.1"/>
		</g>
	</g>
	<g>
		<defs>
			<rect id="SVGID_57_" x="219.3" y="69.2" width="4.8" height="4.8"/>
		</defs>
		<clipPath id="SVGID_58_">
			<use xlink:href="#SVGID_57_"  style="overflow:visible;"/>
		</clipPath>
		<g class="st28">
			<defs>
				<rect id="SVGID_59_" x="-125" y="-58" width="1440" height="314"/>
			</defs>
			<clipPath id="SVGID_60_">
				<use xlink:href="#SVGID_59_"  style="overflow:visible;"/>
			</clipPath>
			<rect x="214.3" y="64.2" class="st29" width="14.8" height="14.8"/>
		</g>
	</g>
	<g>
		<defs>
			<path id="SVGID_61_" d="M247.6,53.2c0-1.8-0.1-3.2-0.1-4c-0.2-1.5-1.2-2.5-2.7-2.5c-1.3,0-2.2,0.7-2.5,2.1
				c-0.1,0.6-0.2,2.1-0.2,4.7v9.9c0,3,0.1,4.3,0.3,4.9c0.4,1.1,1.3,1.8,2.4,1.8c1.4,0,2.5-1,2.6-2.6c0.1-0.8,0.1-3.1,0.1-4.5h5v1.8
				c0,3.2-0.2,4.4-1.1,6.1c-1.2,2.3-3.7,3.6-6.6,3.6c-2.3,0-4.5-0.9-5.8-2.5c-1.6-1.9-2-3.4-2-8.3V53.2c0-4.9,0.3-6.4,2-8.3
				c1.3-1.6,3.5-2.5,5.8-2.5c2.9,0,5.4,1.3,6.6,3.4c0.9,1.5,1.1,2.7,1.1,5.7v1.7H247.6z"/>
		</defs>
		<clipPath id="SVGID_62_">
			<use xlink:href="#SVGID_61_"  style="overflow:visible;"/>
		</clipPath>
		<g class="st30">
			<defs>
				<rect id="SVGID_63_" x="-125" y="-58" width="1440" height="314"/>
			</defs>
			<clipPath id="SVGID_64_">
				<use xlink:href="#SVGID_63_"  style="overflow:visible;"/>
			</clipPath>
			<rect x="232.1" y="37.5" class="st31" width="25.6" height="42"/>
		</g>
	</g>
	<g>
		<defs>
			<path id="SVGID_65_" d="M272.1,42.9v21c0,4.6-0.4,6.3-2,8.1c-1.3,1.5-3.5,2.5-5.8,2.5c-2.3,0-4.5-0.9-5.8-2.5
				c-1.6-1.8-2-3.5-2-8.1v-21h5v20.5c0,2.9,0.1,4.3,0.3,5c0.4,1.1,1.3,1.8,2.5,1.8c1.2,0,2.2-0.7,2.5-2.1c0.1-0.6,0.2-2.1,0.2-4.7
				V42.9H272.1z"/>
		</defs>
		<clipPath id="SVGID_66_">
			<use xlink:href="#SVGID_65_"  style="overflow:visible;"/>
		</clipPath>
		<g class="st32">
			<defs>
				<rect id="SVGID_67_" x="-125" y="-58" width="1440" height="314"/>
			</defs>
			<clipPath id="SVGID_68_">
				<use xlink:href="#SVGID_67_"  style="overflow:visible;"/>
			</clipPath>
			<rect x="251.5" y="37.9" class="st33" width="25.6" height="41.6"/>
		</g>
	</g>
	<g>
		<defs>
			<path id="SVGID_69_" d="M291.9,63.9c0,4.6-0.4,6.3-2,8.1c-1.3,1.5-3.5,2.5-5.8,2.5c-2.3,0-4.5-0.9-5.8-2.5c-1.6-1.8-2-3.5-2-8.1
				V53.1c0-4.6,0.4-6.3,2-8.1c1.3-1.5,3.5-2.5,5.8-2.5c2.3,0,4.5,0.9,5.8,2.5c1.6,1.8,2,3.5,2,8.1V63.9z M281.3,63.4
				c0,2.9,0.1,4.3,0.3,5c0.4,1.1,1.3,1.8,2.5,1.8c1.2,0,2.2-0.7,2.5-2.1c0.1-0.6,0.2-2.1,0.2-4.7v-9.8c0-3-0.1-4.3-0.3-5
				c-0.4-1.1-1.3-1.8-2.4-1.8c-1.3,0-2.2,0.7-2.6,2.1c-0.1,0.6-0.2,2.2-0.2,4.7V63.4z"/>
		</defs>
		<clipPath id="SVGID_70_">
			<use xlink:href="#SVGID_69_"  style="overflow:visible;"/>
		</clipPath>
		<g class="st34">
			<defs>
				<rect id="SVGID_71_" x="-125" y="-58" width="1440" height="314"/>
			</defs>
			<clipPath id="SVGID_72_">
				<use xlink:href="#SVGID_71_"  style="overflow:visible;"/>
			</clipPath>
			<rect x="271.4" y="37.5" class="st35" width="25.6" height="42"/>
		</g>
	</g>
	<g>
		<defs>
			<polygon id="SVGID_73_" points="312.9,74.1 312.9,52.5 308.1,74.1 305.9,74.1 300.9,52.5 300.9,74.1 296.3,74.1 296.3,42.9 
				302.9,42.9 307,61.9 310.8,42.9 317.5,42.9 317.5,74.1 			"/>
		</defs>
		<clipPath id="SVGID_74_">
			<use xlink:href="#SVGID_73_"  style="overflow:visible;"/>
		</clipPath>
		<g class="st36">
			<defs>
				<rect id="SVGID_75_" x="-125" y="-58" width="1440" height="314"/>
			</defs>
			<clipPath id="SVGID_76_">
				<use xlink:href="#SVGID_75_"  style="overflow:visible;"/>
			</clipPath>
			<rect x="291.3" y="37.9" class="st37" width="31.3" height="41.1"/>
		</g>
	</g>
	<g>
		<defs>
			<rect id="SVGID_77_" x="321.8" y="42.5" width="15.6" height="32"/>
		</defs>
		<clipPath id="SVGID_78_">
			<use xlink:href="#SVGID_77_"  style="overflow:visible;"/>
		</clipPath>
		<g class="st38">
			<defs>
				<rect id="SVGID_79_" x="-125" y="-58" width="1440" height="314"/>
			</defs>
			<clipPath id="SVGID_80_">
				<use xlink:href="#SVGID_79_"  style="overflow:visible;"/>
			</clipPath>
			<g class="st39">
				<g>
					<defs>
						<rect id="SVGID_81_" x="321" y="42" width="17" height="33"/>
					</defs>
					<clipPath id="SVGID_82_">
						<use xlink:href="#SVGID_81_"  style="overflow:visible;"/>
					</clipPath>
					<g class="st40">
						<defs>
							<path id="SVGID_83_" d="M337.4,63.9c0,4.6-0.4,6.3-2,8.1c-1.3,1.5-3.5,2.5-5.8,2.5c-2.3,0-4.5-0.9-5.8-2.5
								c-1.6-1.8-2-3.5-2-8.1V53.1c0-4.6,0.4-6.3,2-8.1c1.3-1.5,3.5-2.5,5.8-2.5c2.3,0,4.5,0.9,5.8,2.5c1.6,1.8,2,3.5,2,8.1V63.9z
								 M326.8,63.4c0,2.9,0.1,4.3,0.3,5c0.4,1.1,1.3,1.8,2.5,1.8c1.2,0,2.2-0.7,2.5-2.1c0.1-0.6,0.2-2.1,0.2-4.7v-9.8
								c0-3-0.1-4.3-0.3-5c-0.4-1.1-1.3-1.8-2.4-1.8c-1.3,0-2.2,0.7-2.6,2.1c-0.2,0.6-0.2,2.2-0.2,4.7V63.4z"/>
						</defs>
						<clipPath id="SVGID_84_">
							<use xlink:href="#SVGID_83_"  style="overflow:visible;"/>
						</clipPath>
						<g class="st41">
							<defs>
								<rect id="SVGID_85_" x="321" y="42" width="17" height="33"/>
							</defs>
							<clipPath id="SVGID_86_">
								<use xlink:href="#SVGID_85_"  style="overflow:visible;"/>
							</clipPath>
							<rect x="316.8" y="37.5" class="st42" width="25.6" height="42"/>
						</g>
					</g>
				</g>
			</g>
		</g>
	</g>
	<g>
		<defs>
			<path id="SVGID_87_" d="M90.1,80H97c5.5,0,8.2,2.7,8.2,8.1c0,3.3-1,5.3-3.5,7c2.9,1.4,4.1,3.6,4.1,7.7c0,3.1-0.8,5.4-2.4,6.8
				c-1.3,1.2-2.7,1.5-6,1.5h-7.4V80z M96.1,92.9c1.5,0,2.2-0.2,2.9-0.8c0.9-0.8,1.3-2.1,1.3-3.8c0-2.7-1.1-3.9-3.4-3.9h-1.9v8.5
				H96.1z M96.9,106.8c2.8,0,4-1.3,4-4.5c0-2-0.5-3.5-1.6-4.3c-0.6-0.5-1.4-0.7-3-0.7h-1.2v9.6H96.9z"/>
		</defs>
		<clipPath id="SVGID_88_">
			<use xlink:href="#SVGID_87_"  style="overflow:visible;"/>
		</clipPath>
		<g class="st43">
			<defs>
				<rect id="SVGID_89_" x="-125" y="-58" width="1440" height="314"/>
			</defs>
			<clipPath id="SVGID_90_">
				<use xlink:href="#SVGID_89_"  style="overflow:visible;"/>
			</clipPath>
			<rect x="85.1" y="75" class="st44" width="25.8" height="41.1"/>
		</g>
	</g>
	<g>
		<defs>
			<path id="SVGID_91_" d="M115,111.2h-5V80h7c5.8,0,8.3,2.8,8.3,9c0,4-0.9,6.2-3.3,7.8l3.8,14.3h-5.3l-3.1-13H115V111.2z
				 M116.6,93.8c1.7,0,2.3-0.2,2.9-1c0.5-0.7,0.8-2.1,0.8-3.7c0-1.7-0.3-3.2-1-3.9c-0.5-0.7-1.1-0.8-2.7-0.8H115v9.4H116.6z"/>
		</defs>
		<clipPath id="SVGID_92_">
			<use xlink:href="#SVGID_91_"  style="overflow:visible;"/>
		</clipPath>
		<g class="st45">
			<defs>
				<rect id="SVGID_93_" x="-125" y="-58" width="1440" height="314"/>
			</defs>
			<clipPath id="SVGID_94_">
				<use xlink:href="#SVGID_93_"  style="overflow:visible;"/>
			</clipPath>
			<rect x="105" y="75" class="st46" width="25.8" height="41.1"/>
		</g>
	</g>
	<g>
		<defs>
			<rect id="SVGID_95_" x="129.6" y="80" width="5" height="31.1"/>
		</defs>
		<clipPath id="SVGID_96_">
			<use xlink:href="#SVGID_95_"  style="overflow:visible;"/>
		</clipPath>
		<g class="st47">
			<defs>
				<rect id="SVGID_97_" x="-125" y="-58" width="1440" height="314"/>
			</defs>
			<clipPath id="SVGID_98_">
				<use xlink:href="#SVGID_97_"  style="overflow:visible;"/>
			</clipPath>
			<rect x="124.6" y="75" class="st48" width="15" height="41.1"/>
		</g>
	</g>
	<g>
		<defs>
			<path id="SVGID_99_" d="M139,80h7.1c5.7,0,8.4,2.8,8.4,8.8v13.6c0,6-2.7,8.8-8.4,8.8H139V80z M145.5,106.8c1.4,0,2.5-0.4,3.1-1.2
				c0.6-0.8,0.8-1.8,0.8-4.1V89.7c0-2.3-0.2-3.3-0.8-4.1c-0.6-0.8-1.7-1.2-3.1-1.2H144v22.4H145.5z"/>
		</defs>
		<clipPath id="SVGID_100_">
			<use xlink:href="#SVGID_99_"  style="overflow:visible;"/>
		</clipPath>
		<g class="st49">
			<defs>
				<rect id="SVGID_101_" x="-125" y="-58" width="1440" height="314"/>
			</defs>
			<clipPath id="SVGID_102_">
				<use xlink:href="#SVGID_101_"  style="overflow:visible;"/>
			</clipPath>
			<rect x="134" y="75" class="st50" width="25.5" height="41.1"/>
		</g>
	</g>
	<g>
		<defs>
			<path id="SVGID_103_" d="M174.1,111.2h-2.4l-0.9-2.5c-1.4,2.1-2.8,2.9-5.2,2.9c-2.4,0-4.4-1-5.5-2.7c-1.1-1.8-1.5-3.9-1.5-7.7
				V90.4c0-4.9,0.3-6.4,2-8.3c1.3-1.6,3.5-2.5,5.8-2.5c3.7,0,6.5,2,7.4,5.3c0.3,1.1,0.3,1.6,0.3,5.4h-5c0-1.9-0.1-3.1-0.1-3.8
				c-0.2-1.5-1.2-2.5-2.7-2.5c-1.2,0-2.2,0.7-2.5,2.1c-0.1,0.6-0.2,2.2-0.2,4.7v9.8c0,2.3,0.1,4.3,0.3,4.9c0.3,1.1,1.3,1.8,2.5,1.8
				c1.2,0,2.2-0.7,2.5-2c0.1-0.7,0.2-2.1,0.2-4.7v-1.3h-3v-3.9h8V111.2z"/>
		</defs>
		<clipPath id="SVGID_104_">
			<use xlink:href="#SVGID_103_"  style="overflow:visible;"/>
		</clipPath>
		<g class="st51">
			<defs>
				<rect id="SVGID_105_" x="-125" y="-58" width="1440" height="314"/>
			</defs>
			<clipPath id="SVGID_106_">
				<use xlink:href="#SVGID_105_"  style="overflow:visible;"/>
			</clipPath>
			<rect x="153.6" y="74.6" class="st52" width="25.6" height="42"/>
		</g>
	</g>
	<g>
		<defs>
			<polygon id="SVGID_107_" points="178.6,80 178.6,111.2 192.1,111.2 192.1,106.8 183.5,106.8 183.5,97.2 189.7,97.2 189.7,92.9 
				183.5,92.9 183.5,84.4 192.1,84.4 192.1,80 			"/>
		</defs>
		<clipPath id="SVGID_108_">
			<use xlink:href="#SVGID_107_"  style="overflow:visible;"/>
		</clipPath>
		<g class="st53">
			<defs>
				<rect id="SVGID_109_" x="-125" y="-58" width="1440" height="314"/>
			</defs>
			<clipPath id="SVGID_110_">
				<use xlink:href="#SVGID_109_"  style="overflow:visible;"/>
			</clipPath>
			<rect x="173.6" y="75" class="st54" width="23.5" height="41.1"/>
		</g>
	</g>
	<g>
		<defs>
			<polygon id="SVGID_111_" points="5,6.3 28.4,41.2 5,76.1 19.8,76.1 43.2,41.2 19.8,6.3 			"/>
		</defs>
		<clipPath id="SVGID_112_">
			<use xlink:href="#SVGID_111_"  style="overflow:visible;"/>
		</clipPath>
		<g class="st55">
			<defs>
				<rect id="SVGID_113_" x="-125" y="-58" width="1440" height="314"/>
			</defs>
			<clipPath id="SVGID_114_">
				<use xlink:href="#SVGID_113_"  style="overflow:visible;"/>
			</clipPath>
			<rect y="1.3" class="st56" width="48.2" height="79.9"/>
		</g>
	</g>
	<g>
		<defs>
			<polygon id="SVGID_115_" points="54,41.2 30.6,76.1 54,111.1 68.8,111.1 45.4,76.1 68.8,41.2 			"/>
		</defs>
		<clipPath id="SVGID_116_">
			<use xlink:href="#SVGID_115_"  style="overflow:visible;"/>
		</clipPath>
		<g class="st57">
			<defs>
				<rect id="SVGID_117_" x="-125" y="-58" width="1440" height="314"/>
			</defs>
			<clipPath id="SVGID_118_">
				<use xlink:href="#SVGID_117_"  style="overflow:visible;"/>
			</clipPath>
			<rect x="25.6" y="36.2" class="st58" width="48.2" height="79.9"/>
		</g>
	</g>
</g>
</svg>
